<?xml version="1.0" encoding="UTF-8"?>
<svg id="Layer_2" data-name="Layer 2" xmlns="http://www.w3.org/2000/svg" viewBox="0 0 1728 1296">
  <defs>
    <style>
      .cls-1 {
        stroke-width: 10px;
      }

      .cls-1, .cls-2, .cls-3, .cls-4 {
        fill: none;
      }

      .cls-1, .cls-2, .cls-3, .cls-4, .cls-5, .cls-6 {
        stroke: #000;
        stroke-miterlimit: 10;
      }

      .cls-2 {
        stroke-width: 12px;
      }

      .cls-3 {
        stroke-width: 22px;
      }

      .cls-4 {
        stroke-width: 23px;
      }

      .cls-5 {
        stroke-width: 4px;
      }

      .cls-6 {
        stroke-width: 7px;
      }
    </style>
  </defs>
  <path class="cls-4" d="M1139.86,1053.11h-523.79c-30.81,0-53.08-35.98-44.68-72.2l161.45-696.75c5.66-24.42,23.91-41.28,44.68-41.28h183.14c20.28,0,38.22,16.09,44.3,39.73l179.19,696.75c9.4,36.55-12.94,73.75-44.3,73.75Z"/>
  <rect class="cls-1" x="608.09" y="827.08" width="539.76" height="6.98"/>
  <rect class="cls-2" x="832.08" y="241.92" width="63.84" height="588.64"/>
  <path d="M892.79,763.72l-29.65.57c-11.57.22-11.61,18.22,0,18l29.65-.57c11.57-.22,11.61-18.22,0-18h0Z"/>
  <path d="M892.79,714.85l-29.65.57c-11.57.22-11.61,18.22,0,18l29.65-.57c11.57-.22,11.61-18.22,0-18h0Z"/>
  <path d="M892.47,663.15l-29.65.57c-11.57.22-11.61,18.22,0,18l29.65-.57c11.57-.22,11.61-18.22,0-18h0Z"/>
  <path d="M892.47,614.28l-29.65.57c-11.57.22-11.61,18.22,0,18l29.65-.57c11.57-.22,11.61-18.22,0-18h0Z"/>
  <path d="M892.63,565.4l-29.65.57c-11.57.22-11.61,18.22,0,18l29.65-.57c11.57-.22,11.61-18.22,0-18h0Z"/>
  <path d="M892.63,516.52l-29.65.57c-11.57.22-11.61,18.22,0,18l29.65-.57c11.57-.22,11.61-18.22,0-18h0Z"/>
  <path d="M892.31,464.83l-29.65.57c-11.57.22-11.61,18.22,0,18l29.65-.57c11.57-.22,11.61-18.22,0-18h0Z"/>
  <path d="M892.31,415.95l-29.65.57c-11.57.22-11.61,18.22,0,18l29.65-.57c11.57-.22,11.61-18.22,0-18h0Z"/>
  <path d="M892.47,367.07c-9.88.19-19.77.38-29.65.57-11.57.22-11.61,18.22,0,18,9.88-.19,19.77-.38,29.65-.57,11.57-.22,11.61-18.22,0-18h0Z"/>
  <path d="M892.15,315.38c-9.88.19-19.77.38-29.65.57-11.57.22-11.61,18.22,0,18,9.88-.19,19.77-.38,29.65-.57,11.57-.22,11.61-18.22,0-18h0Z"/>
  <path d="M892.15,266.5c-9.88.19-19.77.38-29.65.57-11.57.22-11.61,18.22,0,18,9.88-.19,19.77-.38,29.65-.57,11.57-.22,11.61-18.22,0-18h0Z"/>
  <path class="cls-3" d="M612.59,1053.13c-2.36,5-3.85,10.37-4.33,15.98-2.75,32.18,28.86,59.36,66.86,57.48,33.21-1.64,59.55-24.99,59.55-53.56,0-7.03-1.6-13.75-4.5-19.9,0,0-.02-.02-.03-.02h-117.52s-.02,0-.03.02Z"/>
  <path class="cls-3" d="M1025.77,1053.13c-2.36,5-3.85,10.37-4.33,15.98-2.75,32.18,28.86,59.36,66.86,57.48,33.21-1.64,59.55-24.99,59.55-53.56,0-7.03-1.6-13.75-4.5-19.9,0,0-.02-.02-.03-.02h-117.52s-.02,0-.03.02Z"/>
  <circle class="cls-6" cx="504.05" cy="434.54" r="30.81"/>
  <rect class="cls-5" x="678.62" y="352.6" width="10" height="549.5" rx="5" ry="5" transform="translate(1611.44 620.55) rotate(137.04)"/>
</svg>