<?xml version="1.0" encoding="UTF-8"?>
<svg id="Layer_2" data-name="Layer 2" xmlns="http://www.w3.org/2000/svg" viewBox="0 0 1728 1296">
  <defs>
    <style>
      .cls-1 {
        fill: #e6e7e8;
      }

      .cls-1, .cls-2, .cls-3 {
        stroke: #231f20;
      }

      .cls-1, .cls-2, .cls-3, .cls-4, .cls-5 {
        stroke-miterlimit: 10;
      }

      .cls-1, .cls-3, .cls-4 {
        stroke-linecap: round;
      }

      .cls-2 {
        stroke-width: .25px;
      }

      .cls-4 {
        fill: none;
        stroke-width: 34px;
      }

      .cls-4, .cls-5 {
        stroke: #000;
      }

      .cls-5 {
        stroke-width: 22px;
      }
    </style>
  </defs>
  <line class="cls-1" x1="159.38" y1="601.32" x2="159.38" y2="633.29"/>
  <path class="cls-5" d="M929.94,947.16c2.64-6.32,4.32-13.11,4.86-20.2,3.08-40.69-32.38-75.05-75-72.67-37.25,2.08-66.79,31.6-66.79,67.72,0,8.89,1.79,17.38,5.05,25.16,0,.01.02.02.03.02h131.82s.03,0,.03-.02Z"/>
  <g>
    <path class="cls-4" d="M344.52,668.64c101.88-109.14,212.09-217.25,350.9-262.32,151.06-51.11,322.36-29.41,458.68,59.21,90.9,57.99,161.62,144.79,229.13,232.33"/>
    <path d="M863.85,371.14c-.17,24.37-.35,48.74-.52,73.11-.08,11.59,17.92,11.6,18,0,.17-24.37.35-48.74.52-73.11.08-11.59-17.92-11.6-18,0h0Z"/>
    <path d="M569.85,457.47c11.03,21.13,22.06,42.27,33.09,63.4,5.36,10.27,20.9,1.18,15.54-9.08-11.03-21.13-22.06-42.27-33.09-63.4-5.36-10.27-20.9-1.18-15.54,9.08h0Z"/>
    <path d="M334.69,671.16c15.03,16.64,30.07,33.29,45.1,49.93,7.78,8.61,20.48-4.15,12.73-12.73-15.03-16.64-30.07-33.29-45.1-49.93-7.78-8.61-20.48,4.15-12.73,12.73h0Z"/>
    <path d="M1158.07,458.4c-11.34,21.19-22.68,42.39-34.03,63.58-5.46,10.21,10.07,19.31,15.54,9.08,11.34-21.19,22.68-42.39,34.03-63.58,5.46-10.21-10.07-19.31-15.54-9.08h0Z"/>
    <path d="M1380.58,687.94c-16.11,15.37-32.22,30.75-48.33,46.12-8.4,8.01,4.34,20.73,12.73,12.73,16.11-15.37,32.22-30.75,48.33-46.12,8.4-8.01-4.34-20.73-12.73-12.73h0Z"/>
    <path d="M1015.75,394.61c-2.52,10.79-5.04,21.59-7.56,32.38s14.72,16.08,17.36,4.79,5.04-21.59,7.56-32.38-14.72-16.08-17.36-4.79h0Z"/>
    <path d="M711.71,393.73c2.73,10.73,5.47,21.46,8.2,32.19s20.22,6.46,17.36-4.79-5.47-21.46-8.2-32.19-20.22-6.46-17.36,4.79h0Z"/>
    <path d="M447.86,558.9c6.13,7.72,12.26,15.44,18.39,23.17,3.02,3.81,9.57,3.16,12.73,0,3.76-3.76,3.03-8.91,0-12.73-6.13-7.72-12.26-15.44-18.39-23.17-3.02-3.81-9.57-3.16-12.73,0-3.76,3.76-3.03,8.91,0,12.73h0Z"/>
    <path d="M1278.35,563.18c-6.75,8.01-13.5,16.02-20.24,24.02-3.13,3.71-3.64,9.08,0,12.73,3.21,3.21,9.58,3.73,12.73,0,6.75-8.01,13.5-16.02,20.24-24.02,3.13-3.71,3.64-9.08,0-12.73-3.21-3.21-9.58-3.73-12.73,0h0Z"/>
  </g>
  <path class="cls-3" d="M845.46,496.7l-25.66,48.91c-7.31,13.94,2.8,30.65,18.54,30.65h51.32c15.74,0,25.85-16.72,18.54-30.65l-25.66-48.91c-7.84-14.94-29.23-14.94-37.07,0Z"/>
  <rect class="cls-2" x="853.85" y="564.12" width="20.3" height="266.32" rx="7.12" ry="7.12"/>
</svg>